:FULLY-SPECIFIED
:FORCE-ALL-JOINTS-BE-3DOF
:DEGREES
1053
root 1.2045 15.1589 32.5471 4.88413 -3.40968 363.474
lfemur 8.83471 0.46654 5.6714
ltibia -0.0934895 0 0
lfoot -30.3447 -11.2221 0
ltoes -34.1982 0 0
rfemur -31.0899 -15.7559 -6.31218
rtibia 50.0338 0 0
rfoot -21.8912 5.49785 0
rtoes -40.9811 0 0
lowerback -1.80857 -0.0435292 -0.237099
upperback -0.473888 -0.0205806 -6.05278
thorax 0.525715 -0.0117401 -6.14105
lowerneck -7.02855 0.736111 6.52863
upperneck 1.27783 0.296063 3.68203
head 1.59501 0.27472 0.0629102
lclavicle 6.68182e-15 1.66069e-16 0
lhumerus -58.7223 -46.9407 115.398
lradius 55.8327 0 0
lwrist 25.626 0 0
lhand 37.4168 25.2934 0
lfingers 7.12502 0 0
lthumb 60.2214 38.8389 0
rclavicle 6.68182e-15 1.66069e-16 0
rhumerus 2.15649 -23.6434 0.629593
rradius 27.4671 0 0
rwrist -9.75246 0 0
rhand -30.5672 -42.1377 0
rfingers 7.12502 0 0
rthumb -3.86518 -792.082 0
1054
root 1.20632 15.1595 32.5528 4.88554 -3.38683 363.453
lfemur 8.8525 0.447658 5.68807
ltibia -0.104665 0 0
lfoot -30.349 -11.1988 0
ltoes -34.2344 0 0
rfemur -31.0375 -15.7115 -6.30946
rtibia 50.0122 0 0
rfoot -21.8764 5.45108 0
rtoes -40.9582 0 0
lowerback -1.82908 -0.0465707 -0.2427
upperback -0.473084 -0.0237439 -6.04527
thorax 0.537739 -0.0131526 -6.12999
lowerneck -7.04599 0.720133 6.51754
upperneck 1.30737 0.272136 3.69817
head 1.60732 0.264364 0.0690803
lclavicle 6.70692e-15 9.17221e-15 0
lhumerus -58.7235 -46.9538 115.412
lradius 55.8314 0 0
lwrist 25.6241 0 0
lhand 37.432 25.2904 0
lfingers 7.12502 0 0
lthumb 60.2344 38.8222 0
rclavicle 6.70692e-15 9.17221e-15 0
rhumerus 2.11269 -23.5971 0.646715
rradius 27.4688 0 0
rwrist -9.71936 0 0
rhand -30.5497 -42.0778 0
rfingers 7.12502 0 0
rthumb -3.84833 -792.023 0
1055
root 1.20822 15.1603 32.5587 4.88744 -3.36609 363.43
lfemur 8.86312 0.431251 5.70198
ltibia -0.0993497 0 0
lfoot -30.3614 -11.1728 0
ltoes -34.2698 0 0
rfemur -30.9858 -15.668 -6.30622
rtibia 49.9895 0 0
rfoot -21.8624 5.40763 0
rtoes -40.9355 0 0
lowerback -1.8495 -0.049733 -0.248424
upperback -0.472641 -0.0270953 -6.03672
thorax 0.549319 -0.0146728 -6.11775
lowerneck -7.0626 0.705344 6.50565
upperneck 1.33592 0.250019 3.71331
head 1.61919 0.254837 0.0751294
lclavicle 6.64649e-15 1.80597e-14 0
lhumerus -58.7218 -46.9631 115.425
lradius 55.8289 0 0
lwrist 25.6211 0 0
lhand 37.4471 25.2874 0
lfingers 7.12502 0 0
lthumb 60.2473 38.8053 0
rclavicle 6.64649e-15 1.80597e-14 0
rhumerus 2.07211 -23.5504 0.662141
rradius 27.4711 0 0
rwrist -9.68463 0 0
rhand -30.5347 -42.0206 0
rfingers 7.12502 0 0
rthumb -3.83379 -791.966 0
1056
root 1.21025 15.161 32.5645 4.89014 -3.35049 363.409
lfemur 8.86222 0.42031 5.70996
ltibia -0.0681411 0 0
lfoot -30.3863 -11.1454 0
ltoes -34.3003 0 0
rfemur -30.9378 -15.6277 -6.3033
rtibia 49.9661 0 0
rfoot -21.8501 5.37176 0
rtoes -40.9137 0 0
lowerback -1.86883 -0.052617 -0.255033
upperback -0.472725 -0.0301363 -6.02732
thorax 0.559782 -0.016063 -6.1041
lowerneck -7.07618 0.693134 6.49387
upperneck 1.35929 0.231937 3.72618
head 1.62889 0.247045 0.080573
lclavicle 6.47427e-15 2.59547e-14 0
lhumerus -58.7156 -46.9663 115.434
lradius 55.825 0 0
lwrist 25.6173 0 0
lhand 37.4613 25.2852 0
lfingers 7.12502 0 0
lthumb 60.2594 38.7901 0
rclavicle 6.47427e-15 2.59547e-14 0
rhumerus 2.03782 -23.5064 0.674862
rradius 27.4741 0 0
rwrist -9.64976 0 0
rhand -30.5247 -41.9713 0
rfingers 7.12502 0 0
rthumb -3.82413 -791.916 0
1057
root 1.21248 15.1616 32.5701 4.89405 -3.34364 363.39
lfemur 8.84486 0.418396 5.70819
ltibia 4.13472e-14 0 0
lfoot -30.4291 -11.118 0
ltoes -34.3209 0 0
rfemur -30.8972 -15.5928 -6.30183
rtibia 49.9423 0 0
rfoot -21.8406 5.34837 0
rtoes -40.8932 0 0
lowerback -1.88599 -0.0547184 -0.263582
upperback -0.473519 -0.0322281 -6.01737
thorax 0.568394 -0.017016 -6.08872
lowerneck -7.08404 0.685087 6.48338
upperneck 1.37235 0.220448 3.73534
head 1.63432 0.242022 0.0848435
lclavicle 6.16232e-15 3.18055e-14 0
lhumerus -58.703 -46.9605 115.44
lradius 55.8193 0 0
lwrist 25.6134 0 0
lhand 37.4734 25.2851 0
lfingers 7.12502 0 0
lthumb 60.2697 38.779 0
rclavicle 6.16232e-15 3.18055e-14 0
rhumerus 2.01322 -23.4684 0.68385
rradius 27.4779 0 0
rwrist -9.61654 0 0
rhand -30.5229 -41.9358 0
rfingers 7.12502 0 0
rthumb -3.82243 -791.881 0
1058
root 1.21279 15.1617 32.5708 4.8947 -3.34378 363.388
lfemur 8.84065 0.419215 5.70688
ltibia 0.0131468 0 0
lfoot -30.4367 -11.1145 0
ltoes -34.3224 0 0
rfemur -30.8929 -15.589 -6.30174
rtibia 49.9392 0 0
rfoot -21.8397 5.34698 0
rtoes -40.8906 0 0
lowerback -1.88793 -0.0548958 -0.264868
upperback -0.473699 -0.0323856 -6.01598
thorax 0.569284 -0.0170871 -6.08651
lowerneck -7.08425 0.684554 6.48216
upperneck 1.3725 0.219793 3.73608
head 1.63439 0.241712 0.0852602
lclavicle 6.10584e-15 3.23305e-14 0
lhumerus -58.7005 -46.9586 115.44
lradius 55.8184 0 0
lwrist 25.6128 0 0
lhand 37.4747 25.2853 0
lfingers 7.12502 0 0
lthumb 60.2708 38.778 0
rclavicle 6.10584e-15 3.23305e-14 0
rhumerus 2.01115 -23.4643 0.684667
rradius 27.4785 0 0
rwrist -9.61241 0 0
rhand -30.5237 -41.933 0
rfingers 7.12502 0 0
rthumb -3.8232 -791.878 0
